<?xml version="1.0" encoding="UTF-8"?><svg xmlns="http://www.w3.org/2000/svg" width="88" height="31" viewBox="0 0 88 31"><g id="Background"><rect width="88" height="31" fill="#4527a0"/></g><g id="_3D"><polygon points="88 0 88 31 0 31 2 29 86 29 86 2 88 0" fill="#263238" opacity=".5"/><polygon points="88 0 86 2 2 2 2 29 0 31 0 0 88 0" fill="#fff" opacity=".5"/></g><g id="Text"><path d="m29.25,7.04h1.25l1.24,4.76,1.26-4.76h1.28l1.2,4.74,1.22-4.74h1.2l-1.84,5.92h-1.29l-1.19-4.37-1.19,4.37h-1.29l-1.85-5.92Z" fill="#fff"/><path d="m40.03,12.96h-1.22v-5.92h1.22v.86c.34-.59.93-.96,1.77-.96v1.27h-.31c-.9,0-1.46.38-1.46,1.63v3.12Z" fill="#fff"/><path d="m42.76,5.47c0-.44.34-.78.78-.78s.77.34.77.78-.34.78-.77.78-.78-.34-.78-.78Zm.16,1.57h1.22v5.92h-1.22v-5.92Z" fill="#fff"/><path d="m45.95,8.04h-.7v-1h.7v-1.47h1.24v1.47h1.44v1h-1.44v3.28c0,.44.17.62.69.62h.75v1.02h-.97c-1.05,0-1.71-.44-1.71-1.64v-3.28Z" fill="#fff"/><path d="m49.95,8.04h-.7v-1h.7v-1.47h1.24v1.47h1.44v1h-1.44v3.28c0,.44.17.62.69.62h.75v1.02h-.97c-1.05,0-1.71-.44-1.71-1.64v-3.28Z" fill="#fff"/><path d="m56.29,13.05c-1.7,0-2.95-1.2-2.95-3.06s1.2-3.05,2.95-3.05,2.88,1.17,2.88,2.91c0,.2-.01.4-.04.6h-4.52c.09.98.78,1.57,1.69,1.57.75,0,1.17-.37,1.4-.83h1.32c-.33,1.03-1.27,1.86-2.72,1.86Zm-1.68-3.59h3.28c-.02-.91-.74-1.49-1.65-1.49-.83,0-1.49.56-1.62,1.49Z" fill="#fff"/><path d="m64.57,9.65c0-1.08-.59-1.64-1.48-1.64s-1.49.56-1.49,1.64v3.31h-1.22v-5.92h1.22v.68c.4-.48,1.05-.77,1.76-.77,1.39,0,2.43.87,2.43,2.52v3.49h-1.21v-3.31Z" fill="#fff"/><path d="m73.42,6.94c1.57,0,2.78,1.2,2.78,3.03s-1.22,3.08-2.78,3.08c-.98,0-1.68-.44-2.06-.96v.86h-1.22v-7.95h1.22v2.91c.39-.54,1.13-.98,2.06-.98Zm-.27,1.06c-.91,0-1.79.72-1.79,1.99s.88,2,1.79,2,1.8-.74,1.8-2.02-.88-1.97-1.8-1.97Z" fill="#fff"/><path d="m81.47,7.04h1.27l-3.63,8.7h-1.27l1.2-2.88-2.33-5.82h1.36l1.67,4.51,1.73-4.51Z" fill="#fff"/><path d="m34.48,17.94c1,0,1.69.47,2.05.96v-.86h1.24v5.92h-1.24v-.88c-.38.5-1.08.98-2.07.98-1.54,0-2.77-1.26-2.77-3.08s1.24-3.03,2.79-3.03Zm.26,1.06c-.91,0-1.79.69-1.79,1.97s.88,2.02,1.79,2.02,1.79-.72,1.79-2-.87-1.99-1.79-1.99Z" fill="#fff"/><path d="m42.17,16.01h1.22v2.72c.41-.49,1.07-.78,1.84-.78,1.32,0,2.35.87,2.35,2.52v3.49h-1.21v-3.31c0-1.08-.59-1.64-1.48-1.64s-1.49.56-1.49,1.64v3.31h-1.22v-7.95Z" fill="#fff"/><path d="m54.5,23.96h-1.22v-.71c-.39.5-1.05.79-1.75.79-1.39,0-2.44-.87-2.44-2.52v-3.48h1.21v3.3c0,1.08.59,1.64,1.48,1.64s1.49-.56,1.49-1.64v-3.3h1.22v5.92Z" fill="#fff"/><path d="m64.5,20.65c0-1.08-.59-1.64-1.48-1.64s-1.49.56-1.49,1.64v3.31h-1.21v-3.31c0-1.08-.59-1.64-1.48-1.64s-1.49.56-1.49,1.64v3.31h-1.22v-5.92h1.22v.68c.4-.48,1.04-.77,1.75-.77.93,0,1.72.4,2.13,1.17.37-.72,1.2-1.17,2.06-1.17,1.39,0,2.44.87,2.44,2.52v3.49h-1.21v-3.31Z" fill="#fff"/><path d="m69.65,17.94c1,0,1.69.47,2.05.96v-.86h1.24v5.92h-1.24v-.88c-.38.5-1.08.98-2.07.98-1.54,0-2.77-1.26-2.77-3.08s1.24-3.03,2.79-3.03Zm.26,1.06c-.91,0-1.79.69-1.79,1.97s.88,2.02,1.79,2.02,1.79-.72,1.79-2-.87-1.99-1.79-1.99Z" fill="#fff"/><path d="m78.74,20.65c0-1.08-.59-1.64-1.48-1.64s-1.49.56-1.49,1.64v3.31h-1.22v-5.92h1.22v.68c.4-.48,1.05-.77,1.76-.77,1.39,0,2.43.87,2.43,2.52v3.49h-1.21v-3.31Z" fill="#fff"/></g><g id="Image"><circle cx="15.37" cy="15.5" r="10.3" fill="#ffcc80" stroke="#263238" stroke-miterlimit="10" stroke-width="1.5"/><rect x="7.55" y="13.8" width="2.54" height="3.4" rx="1.27" ry="1.27" fill="#263238"/><rect x="20.65" y="13.8" width="2.54" height="3.4" rx="1.27" ry="1.27" fill="#263238"/><path d="m18.44,15.5c0,1.7-1.37,3.07-3.07,3.07s-3.07-1.37-3.07-3.07" fill="none" stroke="#263238" stroke-miterlimit="10" stroke-width="1.5"/></g></svg>